<svg width="32" height="32" viewBox="0 0 32 32" fill="none" xmlns="http://www.w3.org/2000/svg">
<path d="M32 16C32 24.8366 24.8366 32 16 32C7.16344 32 0 24.8366 0 16C0 7.16344 7.16344 0 16 0C24.8366 0 32 7.16344 32 16Z" fill="#F9FAFD"/>
<path fill-rule="evenodd" clip-rule="evenodd" d="M16 30.4762C23.995 30.4762 30.4762 23.995 30.4762 16C30.4762 8.00502 23.995 1.52381 16 1.52381C8.00502 1.52381 1.52381 8.00502 1.52381 16C1.52381 23.995 8.00502 30.4762 16 30.4762ZM16 32C24.8366 32 32 24.8366 32 16C32 7.16344 24.8366 0 16 0C7.16344 0 0 7.16344 0 16C0 24.8366 7.16344 32 16 32Z" fill="#CECECE"/>
</svg>
